<mxfile host="app.diagrams.net" modified="2023-03-08T06:53:19.466Z" agent="5.0 (Windows NT 10.0; WOW64) AppleWebKit/537.36 (KHTML, like Gecko) Chrome/109.0.0.0 Safari/537.36" etag="y3yKI0uwdR1lLZBcD2Ak" version="21.0.2" type="github">
  <diagram id="6a731a19-8d31-9384-78a2-239565b7b9f0" name="Page-1">
    <mxGraphModel dx="2140" dy="2389" grid="1" gridSize="10" guides="1" tooltips="1" connect="1" arrows="1" fold="1" page="1" pageScale="1" pageWidth="827" pageHeight="1169" background="none" math="0" shadow="0">
      <root>
        <mxCell id="0" />
        <mxCell id="1" parent="0" />
        <mxCell id="2109" value="Internet" style="shape=mxgraph.cisco.storage.cloud;html=1;dashed=0;strokeColor=#23445D;fillColor=#ffffff;strokeWidth=2;fontFamily=Helvetica;fontSize=24;fontColor=#23445D;align=center;fontStyle=1" parent="1" vertex="1">
          <mxGeometry x="897" y="-1140" width="186" height="106" as="geometry" />
        </mxCell>
        <mxCell id="2114" value="" style="shape=mxgraph.cisco.switches.workgroup_switch;html=1;dashed=0;fillColor=#10739E;strokeColor=#ffffff;strokeWidth=2;verticalLabelPosition=bottom;verticalAlign=top;fontFamily=Helvetica;fontSize=36;fontColor=#FFB366" parent="1" vertex="1">
          <mxGeometry x="230" y="-270" width="101" height="50" as="geometry" />
        </mxCell>
        <mxCell id="2115" value="" style="shape=mxgraph.cisco.switches.workgroup_switch;html=1;dashed=0;fillColor=#10739E;strokeColor=#ffffff;strokeWidth=2;verticalLabelPosition=bottom;verticalAlign=top;fontFamily=Helvetica;fontSize=36;fontColor=#FFB366" parent="1" vertex="1">
          <mxGeometry x="1109" y="-220" width="101" height="50" as="geometry" />
        </mxCell>
        <mxCell id="2116" value="" style="shape=mxgraph.cisco.switches.workgroup_switch;html=1;dashed=0;fillColor=#10739E;strokeColor=#ffffff;strokeWidth=2;verticalLabelPosition=bottom;verticalAlign=top;fontFamily=Helvetica;fontSize=36;fontColor=#FFB366" parent="1" vertex="1">
          <mxGeometry x="580" y="-230" width="101" height="50" as="geometry" />
        </mxCell>
        <mxCell id="2117" value="" style="shape=mxgraph.cisco.switches.workgroup_switch;html=1;dashed=0;fillColor=#10739E;strokeColor=#ffffff;strokeWidth=2;verticalLabelPosition=bottom;verticalAlign=top;fontFamily=Helvetica;fontSize=36;fontColor=#FFB366" parent="1" vertex="1">
          <mxGeometry x="1390" y="-250" width="101" height="50" as="geometry" />
        </mxCell>
        <mxCell id="2138" value="" style="shape=mxgraph.cisco.routers.router;html=1;dashed=0;fillColor=#10739E;strokeColor=#ffffff;strokeWidth=2;verticalLabelPosition=bottom;verticalAlign=top;fontFamily=Helvetica;fontSize=36;fontColor=#FFB366" parent="1" vertex="1">
          <mxGeometry x="590" y="-830" width="105" height="80" as="geometry" />
        </mxCell>
        <mxCell id="2172" style="edgeStyle=none;rounded=1;html=1;strokeColor=#23445D;endArrow=none;endFill=0;strokeWidth=4;exitX=0.01;exitY=1;exitDx=0;exitDy=0;exitPerimeter=0;" parent="1" source="j_z8CieyKllp7eG0pWuI-2267" target="2114" edge="1">
          <mxGeometry relative="1" as="geometry">
            <mxPoint x="587.7535823214598" y="-304" as="sourcePoint" />
          </mxGeometry>
        </mxCell>
        <mxCell id="2173" style="edgeStyle=none;rounded=1;html=1;strokeColor=#23445D;endArrow=none;endFill=0;strokeWidth=4" parent="1" source="j_z8CieyKllp7eG0pWuI-2267" target="2116" edge="1">
          <mxGeometry relative="1" as="geometry">
            <mxPoint x="569" y="52.23999999999984" as="sourcePoint" />
          </mxGeometry>
        </mxCell>
        <mxCell id="2175" style="edgeStyle=none;rounded=1;html=1;strokeColor=#23445D;endArrow=none;endFill=0;strokeWidth=4" parent="1" source="j_z8CieyKllp7eG0pWuI-2268" target="2115" edge="1">
          <mxGeometry relative="1" as="geometry">
            <mxPoint x="1498" y="34.15969639468682" as="sourcePoint" />
          </mxGeometry>
        </mxCell>
        <mxCell id="2176" style="edgeStyle=none;rounded=1;html=1;strokeColor=#23445D;endArrow=none;endFill=0;strokeWidth=4;exitX=0.92;exitY=0.89;exitDx=0;exitDy=0;exitPerimeter=0;" parent="1" source="j_z8CieyKllp7eG0pWuI-2268" target="2117" edge="1">
          <mxGeometry relative="1" as="geometry">
            <mxPoint x="1315.1807228915668" y="56.079999999999984" as="sourcePoint" />
          </mxGeometry>
        </mxCell>
        <mxCell id="j_z8CieyKllp7eG0pWuI-2257" value="" style="shape=mxgraph.cisco.routers.router;html=1;dashed=0;fillColor=#10739E;strokeColor=#ffffff;strokeWidth=2;verticalLabelPosition=bottom;verticalAlign=top;fontFamily=Helvetica;fontSize=36;fontColor=#FFB366" parent="1" vertex="1">
          <mxGeometry x="1060" y="-830" width="120" height="80" as="geometry" />
        </mxCell>
        <mxCell id="j_z8CieyKllp7eG0pWuI-2258" value="" style="endArrow=none;html=1;rounded=0;exitX=0.88;exitY=0.1;exitDx=0;exitDy=0;exitPerimeter=0;" parent="1" source="j_z8CieyKllp7eG0pWuI-2257" target="2109" edge="1">
          <mxGeometry width="50" height="50" relative="1" as="geometry">
            <mxPoint x="1047" y="-650" as="sourcePoint" />
            <mxPoint x="1007" y="-820" as="targetPoint" />
          </mxGeometry>
        </mxCell>
        <mxCell id="j_z8CieyKllp7eG0pWuI-2259" value="" style="endArrow=none;html=1;rounded=0;exitX=0.5;exitY=0;exitDx=0;exitDy=0;exitPerimeter=0;" parent="1" source="2138" target="j_z8CieyKllp7eG0pWuI-2260" edge="1">
          <mxGeometry width="50" height="50" relative="1" as="geometry">
            <mxPoint x="1127" y="-480" as="sourcePoint" />
            <mxPoint x="1177" y="-530" as="targetPoint" />
          </mxGeometry>
        </mxCell>
        <mxCell id="j_z8CieyKllp7eG0pWuI-2260" value="Internet" style="shape=mxgraph.cisco.storage.cloud;html=1;dashed=0;strokeColor=#23445D;fillColor=#ffffff;strokeWidth=2;fontFamily=Helvetica;fontSize=24;fontColor=#23445D;align=center;fontStyle=1" parent="1" vertex="1">
          <mxGeometry x="610" y="-1140" width="186" height="106" as="geometry" />
        </mxCell>
        <mxCell id="j_z8CieyKllp7eG0pWuI-2265" value="" style="shape=mxgraph.cisco.switches.layer_3_switch;sketch=0;html=1;pointerEvents=1;dashed=0;fillColor=#036897;strokeColor=#ffffff;strokeWidth=2;verticalLabelPosition=bottom;verticalAlign=top;align=center;outlineConnect=0;" parent="1" vertex="1">
          <mxGeometry x="580" y="-660" width="116" height="116" as="geometry" />
        </mxCell>
        <mxCell id="j_z8CieyKllp7eG0pWuI-2266" value="" style="shape=mxgraph.cisco.switches.layer_3_switch;sketch=0;html=1;pointerEvents=1;dashed=0;fillColor=#036897;strokeColor=#ffffff;strokeWidth=2;verticalLabelPosition=bottom;verticalAlign=top;align=center;outlineConnect=0;" parent="1" vertex="1">
          <mxGeometry x="1090" y="-660" width="110" height="110" as="geometry" />
        </mxCell>
        <mxCell id="j_z8CieyKllp7eG0pWuI-2267" value="" style="shape=mxgraph.cisco.switches.simultilayer_switch;sketch=0;html=1;pointerEvents=1;dashed=0;fillColor=#036897;strokeColor=#ffffff;strokeWidth=2;verticalLabelPosition=bottom;verticalAlign=top;align=center;outlineConnect=0;" parent="1" vertex="1">
          <mxGeometry x="580" y="-460" width="105" height="105" as="geometry" />
        </mxCell>
        <mxCell id="j_z8CieyKllp7eG0pWuI-2268" value="" style="shape=mxgraph.cisco.switches.simultilayer_switch;sketch=0;html=1;pointerEvents=1;dashed=0;fillColor=#036897;strokeColor=#ffffff;strokeWidth=2;verticalLabelPosition=bottom;verticalAlign=top;align=center;outlineConnect=0;" parent="1" vertex="1">
          <mxGeometry x="1100" y="-460" width="110" height="110" as="geometry" />
        </mxCell>
        <mxCell id="LQ0Mnabtk8Fukb94RPoe-2260" style="edgeStyle=none;rounded=1;html=1;strokeColor=#23445D;endArrow=none;endFill=0;strokeWidth=4;entryX=0.63;entryY=0.047;entryDx=0;entryDy=0;entryPerimeter=0;" edge="1" parent="1" target="2116">
          <mxGeometry relative="1" as="geometry">
            <mxPoint x="1100" y="-346" as="sourcePoint" />
            <mxPoint x="580" y="-250" as="targetPoint" />
          </mxGeometry>
        </mxCell>
        <mxCell id="LQ0Mnabtk8Fukb94RPoe-2261" style="edgeStyle=none;rounded=1;html=1;strokeColor=#23445D;endArrow=none;endFill=0;strokeWidth=4;entryX=0.16;entryY=0.23;entryDx=0;entryDy=0;entryPerimeter=0;" edge="1" parent="1" target="2115">
          <mxGeometry relative="1" as="geometry">
            <mxPoint x="680" y="-370" as="sourcePoint" />
            <mxPoint x="764" y="-218" as="targetPoint" />
          </mxGeometry>
        </mxCell>
        <mxCell id="LQ0Mnabtk8Fukb94RPoe-2262" style="edgeStyle=none;rounded=1;html=1;strokeColor=#23445D;endArrow=none;endFill=0;strokeWidth=4;entryX=0;entryY=0.5;entryDx=0;entryDy=0;entryPerimeter=0;exitX=0.92;exitY=0.89;exitDx=0;exitDy=0;exitPerimeter=0;" edge="1" parent="1" source="j_z8CieyKllp7eG0pWuI-2267" target="2117">
          <mxGeometry relative="1" as="geometry">
            <mxPoint x="780" y="-345" as="sourcePoint" />
            <mxPoint x="925" y="-198" as="targetPoint" />
          </mxGeometry>
        </mxCell>
        <mxCell id="LQ0Mnabtk8Fukb94RPoe-2263" style="edgeStyle=none;rounded=1;html=1;strokeColor=#23445D;endArrow=none;endFill=0;strokeWidth=4;exitX=0.01;exitY=1;exitDx=0;exitDy=0;exitPerimeter=0;" edge="1" parent="1" source="j_z8CieyKllp7eG0pWuI-2268">
          <mxGeometry relative="1" as="geometry">
            <mxPoint x="701" y="-345" as="sourcePoint" />
            <mxPoint x="341" y="-249" as="targetPoint" />
          </mxGeometry>
        </mxCell>
        <mxCell id="LQ0Mnabtk8Fukb94RPoe-2264" style="edgeStyle=none;rounded=1;html=1;strokeColor=#23445D;endArrow=none;endFill=0;strokeWidth=4;exitX=0.5;exitY=1;exitDx=0;exitDy=0;exitPerimeter=0;" edge="1" parent="1" source="j_z8CieyKllp7eG0pWuI-2266">
          <mxGeometry relative="1" as="geometry">
            <mxPoint x="926" y="-544" as="sourcePoint" />
            <mxPoint x="640" y="-450" as="targetPoint" />
          </mxGeometry>
        </mxCell>
        <mxCell id="LQ0Mnabtk8Fukb94RPoe-2265" style="edgeStyle=none;rounded=1;html=1;strokeColor=#23445D;endArrow=none;endFill=0;strokeWidth=4;exitX=0.5;exitY=1;exitDx=0;exitDy=0;exitPerimeter=0;" edge="1" parent="1" source="j_z8CieyKllp7eG0pWuI-2257">
          <mxGeometry relative="1" as="geometry">
            <mxPoint x="923" y="-750" as="sourcePoint" />
            <mxPoint x="640" y="-660" as="targetPoint" />
          </mxGeometry>
        </mxCell>
        <mxCell id="LQ0Mnabtk8Fukb94RPoe-2266" style="edgeStyle=none;rounded=1;html=1;strokeColor=#23445D;endArrow=none;endFill=0;strokeWidth=4;exitX=0.5;exitY=1;exitDx=0;exitDy=0;exitPerimeter=0;" edge="1" parent="1" source="2138">
          <mxGeometry relative="1" as="geometry">
            <mxPoint x="823" y="-740" as="sourcePoint" />
            <mxPoint x="640" y="-650" as="targetPoint" />
          </mxGeometry>
        </mxCell>
        <mxCell id="LQ0Mnabtk8Fukb94RPoe-2267" style="edgeStyle=none;rounded=1;html=1;strokeColor=#23445D;endArrow=none;endFill=0;strokeWidth=4;exitX=0.5;exitY=1;exitDx=0;exitDy=0;exitPerimeter=0;entryX=0.5;entryY=0;entryDx=0;entryDy=0;entryPerimeter=0;" edge="1" parent="1" target="j_z8CieyKllp7eG0pWuI-2266">
          <mxGeometry relative="1" as="geometry">
            <mxPoint x="1121.5" y="-750" as="sourcePoint" />
            <mxPoint x="1118.5" y="-650" as="targetPoint" />
          </mxGeometry>
        </mxCell>
        <mxCell id="LQ0Mnabtk8Fukb94RPoe-2268" style="edgeStyle=none;rounded=1;html=1;strokeColor=#23445D;endArrow=none;endFill=0;strokeWidth=4;exitX=0.5;exitY=1;exitDx=0;exitDy=0;exitPerimeter=0;entryX=0.5;entryY=0;entryDx=0;entryDy=0;entryPerimeter=0;" edge="1" parent="1" target="j_z8CieyKllp7eG0pWuI-2268">
          <mxGeometry relative="1" as="geometry">
            <mxPoint x="1143" y="-550" as="sourcePoint" />
            <mxPoint x="1140" y="-450" as="targetPoint" />
          </mxGeometry>
        </mxCell>
        <mxCell id="LQ0Mnabtk8Fukb94RPoe-2269" style="edgeStyle=none;rounded=1;html=1;strokeColor=#23445D;endArrow=none;endFill=0;strokeWidth=4;exitX=0.5;exitY=1;exitDx=0;exitDy=0;exitPerimeter=0;" edge="1" parent="1">
          <mxGeometry relative="1" as="geometry">
            <mxPoint x="639.5" y="-544" as="sourcePoint" />
            <mxPoint x="636.5" y="-444" as="targetPoint" />
          </mxGeometry>
        </mxCell>
        <mxCell id="LQ0Mnabtk8Fukb94RPoe-2270" style="edgeStyle=none;rounded=1;html=1;strokeColor=#23445D;endArrow=none;endFill=0;strokeWidth=4;exitX=0.5;exitY=0;exitDx=0;exitDy=0;exitPerimeter=0;entryX=0.5;entryY=1;entryDx=0;entryDy=0;entryPerimeter=0;" edge="1" parent="1" source="j_z8CieyKllp7eG0pWuI-2268" target="j_z8CieyKllp7eG0pWuI-2265">
          <mxGeometry relative="1" as="geometry">
            <mxPoint x="930" y="-460" as="sourcePoint" />
            <mxPoint x="750" y="-540" as="targetPoint" />
          </mxGeometry>
        </mxCell>
        <mxCell id="LQ0Mnabtk8Fukb94RPoe-2271" style="edgeStyle=none;rounded=1;html=1;strokeColor=#23445D;endArrow=none;endFill=0;strokeWidth=4;exitX=0.5;exitY=0;exitDx=0;exitDy=0;exitPerimeter=0;" edge="1" parent="1" source="j_z8CieyKllp7eG0pWuI-2266">
          <mxGeometry relative="1" as="geometry">
            <mxPoint x="950" y="-670" as="sourcePoint" />
            <mxPoint x="640" y="-750" as="targetPoint" />
          </mxGeometry>
        </mxCell>
        <mxCell id="LQ0Mnabtk8Fukb94RPoe-2273" value="" style="endArrow=none;dashed=1;html=1;dashPattern=1 3;strokeWidth=2;rounded=0;" edge="1" parent="1">
          <mxGeometry width="50" height="50" relative="1" as="geometry">
            <mxPoint x="190" y="-690" as="sourcePoint" />
            <mxPoint x="1600" y="-690" as="targetPoint" />
          </mxGeometry>
        </mxCell>
        <mxCell id="LQ0Mnabtk8Fukb94RPoe-2274" value="" style="endArrow=none;dashed=1;html=1;dashPattern=1 3;strokeWidth=2;rounded=0;" edge="1" parent="1">
          <mxGeometry width="50" height="50" relative="1" as="geometry">
            <mxPoint x="180" y="-510" as="sourcePoint" />
            <mxPoint x="1590" y="-510" as="targetPoint" />
          </mxGeometry>
        </mxCell>
        <mxCell id="LQ0Mnabtk8Fukb94RPoe-2275" value="" style="endArrow=none;dashed=1;html=1;dashPattern=1 3;strokeWidth=2;rounded=0;" edge="1" parent="1">
          <mxGeometry width="50" height="50" relative="1" as="geometry">
            <mxPoint x="190" y="-320" as="sourcePoint" />
            <mxPoint x="1580" y="-320" as="targetPoint" />
          </mxGeometry>
        </mxCell>
        <mxCell id="LQ0Mnabtk8Fukb94RPoe-2277" value="Router" style="text;html=1;strokeColor=none;fillColor=none;align=center;verticalAlign=middle;whiteSpace=wrap;rounded=0;fontSize=30;fontStyle=1;fontColor=#0066CC;" vertex="1" parent="1">
          <mxGeometry x="230" y="-850" width="200" height="60" as="geometry" />
        </mxCell>
        <mxCell id="LQ0Mnabtk8Fukb94RPoe-2278" value="Core&amp;nbsp;" style="text;html=1;strokeColor=none;fillColor=none;align=center;verticalAlign=middle;whiteSpace=wrap;rounded=0;fontSize=30;fontStyle=1;fontColor=#0066CC;" vertex="1" parent="1">
          <mxGeometry x="230" y="-620" width="200" height="60" as="geometry" />
        </mxCell>
        <mxCell id="LQ0Mnabtk8Fukb94RPoe-2279" value="Distributed&amp;nbsp;" style="text;html=1;strokeColor=none;fillColor=none;align=center;verticalAlign=middle;whiteSpace=wrap;rounded=0;fontSize=30;fontStyle=1;fontColor=#0066CC;" vertex="1" parent="1">
          <mxGeometry x="214" y="-470" width="200" height="60" as="geometry" />
        </mxCell>
        <mxCell id="LQ0Mnabtk8Fukb94RPoe-2280" value="Acces" style="text;html=1;strokeColor=none;fillColor=none;align=center;verticalAlign=middle;whiteSpace=wrap;rounded=0;fontSize=30;fontStyle=1;fontColor=#0066CC;" vertex="1" parent="1">
          <mxGeometry x="60" y="-280" width="200" height="60" as="geometry" />
        </mxCell>
      </root>
    </mxGraphModel>
  </diagram>
</mxfile>
